<svg xmlns="http://www.w3.org/2000/svg" xmlns:xlink="http://www.w3.org/1999/xlink" xmlns:lucid="lucid" width="400" height="335"><g transform="translate(-220 -145)" lucid:page-tab-id="Ap~GSEDbS6oN"><path d="M299 165c-32.58 0-59 26.42-59 59v177c0 32.58 26.42 59 59 59h242c32.58 0 59-26.42 59-59V224c0-32.58-26.42-59-59-59z" stroke="#000" stroke-width="2" fill="#b2ebf2"/><use xlink:href="#a" transform="matrix(1,0,0,1,248,173) translate(124.458 17.712)"/><path d="M302 220c-24.3 0-44 19.7-44 44v132c0 24.3 19.7 44 44 44h236c24.3 0 44-19.7 44-44V264c0-24.3-19.7-44-44-44z" stroke="#000" stroke-width="2" fill="#b2dfdb"/><use xlink:href="#b" transform="matrix(1,0,0,1,266,228) translate(88.17000000000002 17.712)"/><use xlink:href="#c" transform="matrix(1,0,0,1,266,228) translate(146.526 17.712)"/><path d="M304 280c-15.46 0-28 12.54-28 28v84c0 15.46 12.54 28 28 28h232c15.46 0 28-12.54 28-28v-84c0-15.46-12.54-28-28-28z" stroke="#000" stroke-width="2" fill="#dcedc8"/><use xlink:href="#d" transform="matrix(1,0,0,1,284,288) translate(36.19500000000001 17.712)"/><use xlink:href="#e" transform="matrix(1,0,0,1,284,288) translate(39.83100000000001 17.712)"/><use xlink:href="#f" transform="matrix(1,0,0,1,284,288) translate(175.96499999999997 17.712)"/><use xlink:href="#g" transform="matrix(1,0,0,1,284,288) translate(185.901 17.712)"/><path d="M306 340c-6.63 0-12 5.37-12 12v36c0 6.63 5.37 12 12 12h228c6.63 0 12-5.37 12-12v-36c0-6.63-5.37-12-12-12z" stroke="#000" stroke-width="2" fill="#f0f4c3"/><g><use xlink:href="#h" transform="matrix(1,0,0,1,301.99999999999994,348) translate(34.098 28.399)"/></g><defs><path d="M156-555c17 172 9 368 11 555H90v-656h98c58 162 117 324 175 486h4c55-164 115-324 172-486h98V0h-79c2-187-7-383 11-555h-4C506-391 446-229 386-66h-47c-60-163-121-324-179-489h-4" id="i"/><path d="M181-639c0 30-26 53-57 53s-57-23-57-53c0-31 26-53 57-53s57 22 57 53zM82-486h82V0H82v-486" id="j"/><path d="M274 12C124 12 46-89 46-242c0-154 84-249 234-256 64-3 108 29 142 58l-41 53c-27-22-53-43-98-43-104 0-152 81-152 188S178-60 281-56c50 2 87-25 114-49l37 54c-39 34-91 63-158 63" id="k"/><path d="M334-416c-89-26-142 29-170 104V0H82v-486h68l7 88h3c31-63 101-124 190-90" id="l"/><path d="M271 12C125 12 46-91 46-242c0-152 79-256 225-256s225 104 225 256c0 151-79 254-225 254zm0-442c-100 0-140 84-140 188S172-56 271-56s140-82 140-186-40-188-140-188" id="m"/><path d="M41-282h230v63H41v-63" id="n"/><path d="M90-656h83v329h3l273-329h94L338-406 575 0h-93L286-341 173-208V0H90v-656" id="o"/><path d="M279 12C129 6 46-87 46-242c0-148 77-256 218-256 148 0 205 117 191 273H127c4 97 64 171 162 171 51 0 87-18 121-38l29 54c-42 25-92 53-160 50zm107-291c7-109-70-183-170-143-53 21-83 73-90 143h260" id="p"/><path d="M297-427c-68 0-89 36-133 75V0H82v-486h68l7 70h3c43-40 85-82 163-82 111 0 147 74 148 190V0h-82v-297c-1-82-18-130-92-130" id="q"/><path d="M169 12c-67 0-86-42-87-110v-614h82v620c-2 29 15 42 41 34l11 62c-13 6-27 8-47 8" id="r"/><g id="a"><use transform="matrix(0.018,0,0,0.018,0,0)" xlink:href="#i"/><use transform="matrix(0.018,0,0,0.018,13.085999999999999,0)" xlink:href="#j"/><use transform="matrix(0.018,0,0,0.018,17.514,0)" xlink:href="#k"/><use transform="matrix(0.018,0,0,0.018,25.722,0)" xlink:href="#l"/><use transform="matrix(0.018,0,0,0.018,31.788,0)" xlink:href="#m"/><use transform="matrix(0.018,0,0,0.018,41.65200000000001,0)" xlink:href="#n"/><use transform="matrix(0.018,0,0,0.018,47.24999999999999,0)" xlink:href="#o"/><use transform="matrix(0.018,0,0,0.018,57.54599999999999,0)" xlink:href="#p"/><use transform="matrix(0.018,0,0,0.018,66.474,0)" xlink:href="#l"/><use transform="matrix(0.018,0,0,0.018,72.72,0)" xlink:href="#q"/><use transform="matrix(0.018,0,0,0.018,82.56600000000002,0)" xlink:href="#p"/><use transform="matrix(0.018,0,0,0.018,91.494,0)" xlink:href="#r"/></g><path d="M484-238C550-39 325 64 144-14 105-31 71-55 42-85l50-58c40 43 104 74 181 82 133 14 185-145 71-202-108-54-270-71-270-231 0-151 176-210 315-152 34 14 62 35 85 59l-45 54c-37-35-82-56-149-62-101-9-166 104-87 165 91 70 252 74 291 192" id="s"/><path d="M12-486h85c46 139 93 277 137 419h4c42-142 90-280 136-419h81L283 0h-96" id="t"/><g id="b"><use transform="matrix(0.018,0,0,0.018,0,0)" xlink:href="#s"/><use transform="matrix(0.018,0,0,0.018,9.612,0)" xlink:href="#p"/><use transform="matrix(0.018,0,0,0.018,18.54,0)" xlink:href="#l"/><use transform="matrix(0.018,0,0,0.018,25.127999999999997,0)" xlink:href="#t"/><use transform="matrix(0.018,0,0,0.018,33.53399999999999,0)" xlink:href="#j"/><use transform="matrix(0.018,0,0,0.018,37.96199999999999,0)" xlink:href="#k"/><use transform="matrix(0.018,0,0,0.018,45.79199999999999,0)" xlink:href="#p"/></g><path d="M339 12C145 12 52-127 52-328s97-332 292-340c80-3 141 40 179 81l-47 53c-32-34-69-61-131-61-146 0-207 114-207 265S195-61 341-61c74 0 112-32 151-73l47 51c-48 54-106 95-200 95" id="u"/><path d="M235 12C135 12 96-49 96-150v-269H24v-62l76-5 10-136h69v136h131v67H179v270c1 58 17 94 75 94 19 0 41-7 55-13l16 62c-25 8-58 18-90 18" id="v"/><path d="M201 12C118 12 58-40 58-126c0-53 24-94 72-122s123-49 227-60c-1-72-27-121-100-122-60-1-108 28-145 52l-33-57c46-28 114-63 191-63 121 0 168 82 169 200V0h-68c-4-19-2-42-9-58-42 33-92 70-161 70zm23-66c62-5 93-31 133-65v-135c-89 14-171 22-207 80-36 57 6 125 74 120" id="w"/><g id="c"><use transform="matrix(0.018,0,0,0.018,0,0)" xlink:href="#u"/><use transform="matrix(0.018,0,0,0.018,10.277999999999999,0)" xlink:href="#m"/><use transform="matrix(0.018,0,0,0.018,20.034,0)" xlink:href="#q"/><use transform="matrix(0.018,0,0,0.018,29.88,0)" xlink:href="#v"/><use transform="matrix(0.018,0,0,0.018,35.64,0)" xlink:href="#w"/><use transform="matrix(0.018,0,0,0.018,44.856,0)" xlink:href="#j"/><use transform="matrix(0.018,0,0,0.018,49.284,0)" xlink:href="#q"/><use transform="matrix(0.018,0,0,0.018,59.129999999999995,0)" xlink:href="#p"/><use transform="matrix(0.018,0,0,0.018,68.05799999999999,0)" xlink:href="#l"/></g><path d="M90-656h378v70H173v222h250v70H173V0H90v-656" id="x"/><path d="M377-297c-1-82-18-130-91-130-37 0-77 25-122 75V0H82v-486h68l7 70h3c38-39 82-81 151-82 77 0 114 36 134 93 44-45 84-93 160-93 109 0 148 74 148 190V0h-82v-297c-1-81-18-130-90-130-37 0-77 25-122 75V0h-82v-297" id="y"/><path d="M24-486h84c34 138 73 272 101 416h4c33-142 72-278 108-416h80c37 138 76 275 110 416h4c30-142 67-278 101-416h78L564 0H464c-35-133-73-263-103-401h-4C327-263 289-134 255 0h-96" id="z"/><path d="M82-712h81v482h3l207-256h91L301-291 486 0h-90L254-234l-91 106V0H82v-712" id="A"/><g id="e"><use transform="matrix(0.018,0,0,0.018,0,0)" xlink:href="#i"/><use transform="matrix(0.018,0,0,0.018,13.085999999999999,0)" xlink:href="#j"/><use transform="matrix(0.018,0,0,0.018,17.514,0)" xlink:href="#k"/><use transform="matrix(0.018,0,0,0.018,25.722,0)" xlink:href="#l"/><use transform="matrix(0.018,0,0,0.018,31.788,0)" xlink:href="#m"/><use transform="matrix(0.018,0,0,0.018,41.65200000000001,0)" xlink:href="#n"/><use transform="matrix(0.018,0,0,0.018,47.24999999999999,0)" xlink:href="#x"/><use transform="matrix(0.018,0,0,0.018,55.782,0)" xlink:href="#l"/><use transform="matrix(0.018,0,0,0.018,61.577999999999996,0)" xlink:href="#w"/><use transform="matrix(0.018,0,0,0.018,70.794,0)" xlink:href="#y"/><use transform="matrix(0.018,0,0,0.018,85.716,0)" xlink:href="#p"/><use transform="matrix(0.018,0,0,0.018,94.734,0)" xlink:href="#z"/><use transform="matrix(0.018,0,0,0.018,107.586,0)" xlink:href="#m"/><use transform="matrix(0.018,0,0,0.018,117.34199999999998,0)" xlink:href="#l"/><use transform="matrix(0.018,0,0,0.018,123.58799999999998,0)" xlink:href="#A"/></g><path d="M277-710h60L70 160H10" id="B"/><use transform="matrix(0.018,0,0,0.018,0,0)" xlink:href="#B" id="f"/><path d="M442-472c0-133-139-117-269-117v244c135 5 269 6 269-127zm83 0c1 106-62 164-147 186L544 0h-94L292-277H173V0H90v-656h205c137 1 229 48 230 184" id="C"/><path d="M224 12C112 12 76-61 75-178v-308h83v297c1 82 17 130 91 130 69 0 90-36 131-82v-345h82V0h-68l-7-76h-3c-42 46-81 88-160 88" id="D"/><g id="g"><use transform="matrix(0.018,0,0,0.018,0,0)" xlink:href="#C"/><use transform="matrix(0.018,0,0,0.018,10.277999999999999,0)" xlink:href="#m"/><use transform="matrix(0.018,0,0,0.018,20.034,0)" xlink:href="#D"/><use transform="matrix(0.018,0,0,0.018,29.826,0)" xlink:href="#v"/><use transform="matrix(0.018,0,0,0.018,35.730000000000004,0)" xlink:href="#p"/><use transform="matrix(0.018,0,0,0.018,44.65800000000001,0)" xlink:href="#l"/></g><path d="M248 12C114 10 43-95 47-242c4-146 72-256 211-256 65 0 96 26 136 56-6-85-3-179-4-270h83V0h-68l-7-57h-3c-35 32-83 69-147 69zm24-441c-97 0-138 83-140 186-2 104 39 186 134 186 59 0 90-30 124-67v-254c-35-31-64-51-118-51" id="E"/><path d="M0-656h89c57 190 112 381 169 571h4c56-190 111-382 168-571h85L307 0h-97" id="F"/><g id="h"><use transform="matrix(0.018,0,0,0.018,0,0)" xlink:href="#i"/><use transform="matrix(0.018,0,0,0.018,13.085999999999999,0)" xlink:href="#m"/><use transform="matrix(0.018,0,0,0.018,22.842,0)" xlink:href="#E"/><use transform="matrix(0.018,0,0,0.018,32.831999999999994,0)" xlink:href="#p"/><use transform="matrix(0.018,0,0,0.018,41.75999999999999,0)" xlink:href="#r"/><use transform="matrix(0.018,0,0,0.018,46.349999999999994,0)" xlink:href="#n"/><use transform="matrix(0.018,0,0,0.018,51.47999999999999,0)" xlink:href="#F"/><use transform="matrix(0.018,0,0,0.018,60.695999999999984,0)" xlink:href="#j"/><use transform="matrix(0.018,0,0,0.018,65.12399999999998,0)" xlink:href="#p"/><use transform="matrix(0.018,0,0,0.018,74.14199999999998,0)" xlink:href="#z"/><use transform="matrix(0.018,0,0,0.018,87.06599999999997,0)" xlink:href="#n"/><use transform="matrix(0.018,0,0,0.018,92.66399999999997,0)" xlink:href="#u"/><use transform="matrix(0.018,0,0,0.018,102.94199999999998,0)" xlink:href="#m"/><use transform="matrix(0.018,0,0,0.018,112.69799999999998,0)" xlink:href="#q"/><use transform="matrix(0.018,0,0,0.018,122.544,0)" xlink:href="#v"/><use transform="matrix(0.018,0,0,0.018,128.628,0)" xlink:href="#l"/><use transform="matrix(0.018,0,0,0.018,134.694,0)" xlink:href="#m"/><use transform="matrix(0.018,0,0,0.018,144.45,0)" xlink:href="#r"/><use transform="matrix(0.018,0,0,0.018,149.04,0)" xlink:href="#r"/><use transform="matrix(0.018,0,0,0.018,153.63,0)" xlink:href="#p"/><use transform="matrix(0.018,0,0,0.018,162.558,0)" xlink:href="#l"/></g></defs></g></svg>