<svg xmlns="http://www.w3.org/2000/svg" xmlns:xlink="http://www.w3.org/1999/xlink" xmlns:lucid="lucid" width="1134" height="877"><g transform="translate(-60 -83)" lucid:page-tab-id="0eqBfotfVGlV"><g filter="url(#a)"><path d="M200 165c0-2.76 2.24-5 5-5h270c2.76 0 5 2.24 5 5v90c0 2.76-2.24 5-5 5H205c-2.76 0-5-2.24-5-5z" stroke="#555" stroke-width="2" fill="#3aa6dd"/><use xlink:href="#b" transform="matrix(1,0,0,1,220,160) translate(16.749999999999986 53.6)"/><use xlink:href="#c" transform="matrix(1,0,0,1,220,160) translate(109.45 53.6)"/><use xlink:href="#d" transform="matrix(1,0,0,1,220,160) translate(151.35000000000002 53.6)"/></g><path d="M341 340.76h-2v-40.03h2zm0-61.63h-2V261h2zM341 261h-2v-3h2zM340 355.76l-4.64-14.26h9.28z" fill="#707070"/><path d="M340 359l-6-18.5h12zm-3.26-16.5l3.26 10.03 3.26-10.03z" fill="#707070"/><use xlink:href="#e" transform="matrix(1,0,0,1,329.05,279.1333333333338) translate(0 14.4)"/><g filter="url(#a)"><path d="M200 565c0-2.76 2.24-5 5-5h270c2.76 0 5 2.24 5 5v90c0 2.76-2.24 5-5 5H205c-2.76 0-5-2.24-5-5z" stroke="#555" stroke-width="2" fill="#5abaa7"/><use xlink:href="#f" transform="matrix(1,0,0,1,220,560) translate(82.15 53.6)"/><use xlink:href="#g" transform="matrix(1,0,0,1,220,560) translate(120 53.6)"/></g><path d="M147 919.36h-42c-2.76 0-5-2.24-5-5V125c0-2.76 2.24-5 5-5h42" fill="#666"/><path d="M147 914.36c0 2.76-2.24 5-5 5h-37c-2.76 0-5-2.24-5-5V125c0-2.76 2.24-5 5-5h37c2.76 0 5 2.24 5 5zM147 919.36h1001.98c2.76 0 5-2.24 5-5V125c0-2.76-2.24-5-5-5H147M147 919.36V120M100 718.25h1053.98M100 516.6h1053.98M100 310.08h1053.98" stroke="#666" stroke-width="2" fill="none"/><use xlink:href="#h" transform="matrix(-3.4914813388431334e-15,-1,1,-3.4914813388431334e-15,100.0000000000141,310.0787601555962) translate(31.981481481480692 28.8333333333334)"/><use xlink:href="#i" transform="matrix(-3.4914813388431334e-15,-1,1,-3.4914813388431334e-15,100.00000000001482,516.6108484190189) translate(65.09259259259211 28.8333333333334)"/><use xlink:href="#j" transform="matrix(-3.4914813388431334e-15,-1,1,-3.4914813388431334e-15,100.00000000001552,718.2495311219732) translate(71.44444444444407 28.8333333333334)"/><use xlink:href="#k" transform="matrix(-3.4914813388431334e-15,-1,1,-3.4914813388431334e-15,100.00000000001623,919.3604564713904) translate(61.851851851851364 28.8333333333334)"/><g filter="url(#a)"><path d="M200 365c0-2.76 2.24-5 5-5h270c2.76 0 5 2.24 5 5v90c0 2.76-2.24 5-5 5H205c-2.76 0-5-2.24-5-5z" stroke="#555" stroke-width="2" fill="#3aa6dd"/><use xlink:href="#f" transform="matrix(1,0,0,1,220,360) translate(82.15 53.6)"/><use xlink:href="#g" transform="matrix(1,0,0,1,220,360) translate(120 53.6)"/></g><g filter="url(#a)"><path d="M200 776.25c0-2.76 2.24-5 5-5h270c2.76 0 5 2.24 5 5v90c0 2.76-2.24 5-5 5H205c-2.76 0-5-2.24-5-5z" stroke="#555" stroke-width="2" fill="#5abaa7"/><use xlink:href="#l" transform="matrix(1,0,0,1,220,771.24647649708) translate(26.19999999999999 42.8)"/><use xlink:href="#m" transform="matrix(1,0,0,1,220,771.24647649708) translate(102.05 42.8)"/><use xlink:href="#n" transform="matrix(1,0,0,1,220,771.24647649708) translate(114.05 42.8)"/><use xlink:href="#o" transform="matrix(1,0,0,1,220,771.24647649708) translate(171.9 42.8)"/><use xlink:href="#p" transform="matrix(1,0,0,1,220,771.24647649708) translate(52.875 64.4)"/><use xlink:href="#q" transform="matrix(1,0,0,1,220,771.24647649708) translate(124.725 64.4)"/><use xlink:href="#r" transform="matrix(1,0,0,1,220,771.24647649708) translate(145.675 64.4)"/><use xlink:href="#s" transform="matrix(1,0,0,1,220,771.24647649708) translate(161.175 64.4)"/></g><path d="M340 461v79.76M340 461v-3" stroke="#707070" stroke-width="2" fill="none"/><path d="M340 555.76l-4.64-14.26h9.28z" stroke="#707070" stroke-width="2" fill="#707070"/><path d="M340 661v91M340 661v-3" stroke="#707070" stroke-width="2" fill="none"/><path d="M340 767l-4.64-14.26h9.28z" stroke="#707070" stroke-width="2" fill="#707070"/><g filter="url(#a)"><path d="M520 365c0-2.76 2.24-5 5-5h270c2.76 0 5 2.24 5 5v90c0 2.76-2.24 5-5 5H525c-2.76 0-5-2.24-5-5z" stroke="#555" stroke-width="2" fill="#3aa6dd"/><use xlink:href="#t" transform="matrix(1,0,0,1,540,360) translate(49.175 53.6)"/><use xlink:href="#u" transform="matrix(1,0,0,1,540,360) translate(112.975 53.6)"/></g><path d="M502.45 211H481v-2h21.45zm40.92 0h-19.02v-2h19.02zM481 211h-3v-2h3zM558.37 210l-14.27 4.64v-9.28z" fill="#707070"/><path d="M561.6 210l-18.5 6v-12zm-16.5 3.26l10.03-3.26-10.03-3.26z" fill="#707070"/><use xlink:href="#v" transform="matrix(1,0,0,1,502.44976506078655,199.2) translate(0 14.4)"/><g filter="url(#a)"><path d="M520 565c0-2.76 2.24-5 5-5h270c2.76 0 5 2.24 5 5v90c0 2.76-2.24 5-5 5H525c-2.76 0-5-2.24-5-5z" stroke="#555" stroke-width="2" fill="#5abaa7"/><use xlink:href="#w" transform="matrix(1,0,0,1,540,560) translate(37.125 53.6)"/><use xlink:href="#u" transform="matrix(1,0,0,1,540,560) translate(125.025 53.6)"/></g><path d="M661 540.76h-2v-41.64h2zm0-63.24h-2V461h2zM661 461h-2v-3h2zM660 555.76l-4.64-14.26h9.28z" fill="#707070"/><path d="M660 559l-6-18.5h12zm-3.26-16.5l3.26 10.03 3.26-10.03z" fill="#707070"/><use xlink:href="#e" transform="matrix(1,0,0,1,649.05,477.5171016627967) translate(0 14.4)"/><g filter="url(#a)"><path d="M840 565c0-2.76 2.24-5 5-5h270c2.76 0 5 2.24 5 5v90c0 2.76-2.24 5-5 5H845c-2.76 0-5-2.24-5-5z" stroke="#555" stroke-width="2" fill="#5abaa7"/><use xlink:href="#t" transform="matrix(1,0,0,1,860,560) translate(82.15 53.6)"/><use xlink:href="#x" transform="matrix(1,0,0,1,860,560) translate(145.95000000000002 53.6)"/></g><path d="M978.57 410.1l2.12 2.92.3 1.9v125.84h-2V415.08l-.2-1.26-1.46-2-2.5-.82h-79.18v-2h79.5zM801 411v-2h72.76v2zM801 411h-3v-2h3zM980 555.76l-4.64-14.26h9.28z" fill="#707070"/><path d="M980 559l-6-18.5h12zm-3.26-16.5l3.26 10.03 3.26-10.03z" fill="#707070"/><use xlink:href="#v" transform="matrix(1,0,0,1,873.764136296619,399.2) translate(0 14.4)"/><g filter="url(#a)"><path d="M840 776.25c0-2.76 2.24-5 5-5h270c2.76 0 5 2.24 5 5v90c0 2.76-2.24 5-5 5H845c-2.76 0-5-2.24-5-5z" stroke="#555" stroke-width="2" fill="#5abaa7"/><use xlink:href="#y" transform="matrix(1,0,0,1,860,771.24647649708) translate(10.099999999999994 42.8)"/><use xlink:href="#z" transform="matrix(1,0,0,1,860,771.24647649708) translate(87.55000000000001 42.8)"/><use xlink:href="#A" transform="matrix(1,0,0,1,860,771.24647649708) translate(134.45000000000002 42.8)"/><use xlink:href="#B" transform="matrix(1,0,0,1,860,771.24647649708) translate(174.4 42.8)"/><use xlink:href="#C" transform="matrix(1,0,0,1,860,771.24647649708) translate(219.4 42.8)"/><use xlink:href="#D" transform="matrix(1,0,0,1,860,771.24647649708) translate(22.400000000000006 64.4)"/><use xlink:href="#p" transform="matrix(1,0,0,1,860,771.24647649708) translate(83.35000000000001 64.4)"/><use xlink:href="#q" transform="matrix(1,0,0,1,860,771.24647649708) translate(155.20000000000002 64.4)"/><use xlink:href="#r" transform="matrix(1,0,0,1,860,771.24647649708) translate(176.15 64.4)"/><use xlink:href="#s" transform="matrix(1,0,0,1,860,771.24647649708) translate(191.65 64.4)"/></g><path d="M980 661v91M980 661v-3" stroke="#707070" stroke-width="2" fill="none"/><path d="M980 767l-4.64-14.26h9.28z" stroke="#707070" stroke-width="2" fill="#707070"/><g filter="url(#E)"><path d="M655.9 142.87c2.27-1.6 5.93-1.6 8.2 0l91.8 64.26c2.27 1.6 2.27 4.15 0 5.74l-91.8 64.26c-2.27 1.6-5.93 1.6-8.2 0l-91.8-64.26c-2.27-1.6-2.27-4.15 0-5.74z" stroke="#555" stroke-width="2" fill="#999"/><use xlink:href="#F" transform="matrix(1,0,0,1,610,175) translate(21.525 27.799999999999997)"/><use xlink:href="#G" transform="matrix(1,0,0,1,610,175) translate(24.049999999999997 49.4)"/></g><path d="M661 340.76h-2v-4.16h2zm0-25.76h-2v-35.7h2zM661 279.3h-2v-3h2zM660 355.76l-4.64-14.26h9.28z" fill="#707070"/><path d="M660 359l-6-18.5h12zm-3.26-16.5l3.26 10.03 3.26-10.03z" fill="#707070"/><use xlink:href="#H" transform="matrix(1,0,0,1,644.5,314.9976481920681) translate(0 14.4)"/><g filter="url(#a)"><path d="M840 165c0-2.76 2.24-5 5-5h270c2.76 0 5 2.24 5 5v90c0 2.76-2.24 5-5 5H845c-2.76 0-5-2.24-5-5z" stroke="#555" stroke-width="2" fill="#3aa6dd"/><use xlink:href="#I" transform="matrix(1,0,0,1,860,160) translate(31.599999999999994 53.6)"/><use xlink:href="#J" transform="matrix(1,0,0,1,860,160) translate(84.5 53.6)"/><use xlink:href="#K" transform="matrix(1,0,0,1,860,160) translate(131.45 53.6)"/></g><path d="M777.35 211H758.4v-2h18.95zm43.4 0h-19.5v-2h19.5zM758.4 211h-3v-2h3zM835.76 210l-14.26 4.64v-9.28z" fill="#707070"/><path d="M839 210l-18.5 6v-12zm-16.5 3.26l10.03-3.26-10.03-3.26z" fill="#707070"/><g><use xlink:href="#L" transform="matrix(1,0,0,1,777.3460161543575,199.2) translate(0 14.4)"/></g><defs><path fill="#fff" d="M185-48c-13 30-37 53-82 52C43 2 14-33 14-96s30-98 90-98c62 0 83 45 84 108H66c0 31 8 55 39 56 18 0 30-7 34-22zm-45-69c5-46-57-63-70-21-2 6-4 13-4 21h74" id="M"/><path fill="#fff" d="M88-194c31-1 46 15 58 34l-1-101h50l1 261h-48c-2-10 0-23-3-31C134-8 116 4 84 4 32 4 16-41 15-95c0-56 19-97 73-99zm17 164c33 0 40-30 41-66 1-37-9-64-41-64s-38 30-39 65c0 43 13 65 39 65" id="N"/><path fill="#fff" d="M25-224v-37h50v37H25zM25 0v-190h50V0H25" id="O"/><path fill="#fff" d="M115-3C79 11 28 4 28-45v-112H4v-33h27l15-45h31v45h36v33H77v99c-1 23 16 31 38 25v30" id="P"/><path fill="#fff" d="M199 0l-22-63H83L61 0H9l90-248h61L250 0h-51zm-33-102l-36-108c-10 38-24 72-36 108h72" id="Q"/><path fill="#fff" d="M190-63c-7 42-38 67-86 67-59 0-84-38-90-98-12-110 154-137 174-36l-49 2c-2-19-15-32-35-32-30 0-35 28-38 64-6 74 65 87 74 30" id="R"/><path fill="#fff" d="M110-194c64 0 96 36 96 99 0 64-35 99-97 99-61 0-95-36-95-99 0-62 34-99 96-99zm-1 164c35 0 45-28 45-65 0-40-10-65-43-65-34 0-45 26-45 65 0 36 10 65 43 65" id="S"/><path fill="#fff" d="M135-194c87-1 58 113 63 194h-50c-7-57 23-157-34-157-59 0-34 97-39 157H25l-1-190h47c2 12-1 28 3 38 12-26 28-41 61-42" id="T"/><g id="b"><use transform="matrix(0.05,0,0,0.05,0,0)" xlink:href="#M"/><use transform="matrix(0.05,0,0,0.05,10,0)" xlink:href="#N"/><use transform="matrix(0.05,0,0,0.05,20.950000000000003,0)" xlink:href="#O"/><use transform="matrix(0.05,0,0,0.05,25.950000000000003,0)" xlink:href="#P"/><use transform="matrix(0.05,0,0,0.05,31.900000000000002,0)" xlink:href="#Q"/><use transform="matrix(0.05,0,0,0.05,44.85,0)" xlink:href="#R"/><use transform="matrix(0.05,0,0,0.05,54.85,0)" xlink:href="#P"/><use transform="matrix(0.05,0,0,0.05,60.800000000000004,0)" xlink:href="#O"/><use transform="matrix(0.05,0,0,0.05,65.80000000000001,0)" xlink:href="#S"/><use transform="matrix(0.05,0,0,0.05,76.75000000000001,0)" xlink:href="#T"/></g><path fill="#fff" d="M67-93c0 74 22 123 53 168H70C40 30 18-18 18-93s22-123 52-168h50c-32 44-53 94-53 168" id="U"/><path fill="#fff" d="M111-147c44 9 85 22 84 75-1 49-35 65-84 68v31H91V-4C40-5 12-27 5-72l45-8c4 24 15 38 41 40-2-22 4-51-2-69-39-10-76-22-76-72 0-47 35-60 78-63v-23h20v23c47 1 70 23 78 62l-46 7c-4-18-12-32-32-34v62zm-20-63c-33-4-45 46-13 54 4 1 8 2 13 4v-58zm20 170c39 5 53-51 15-60-7-2-7-2-15-4v64" id="V"/><path fill="#fff" d="M76-54c-1 42 2 86-19 110H24C36 42 46 24 48 0H25v-54h51" id="W"/><g id="c"><use transform="matrix(0.05,0,0,0.05,0,0)" xlink:href="#U"/><use transform="matrix(0.05,0,0,0.05,5.95,0)" xlink:href="#V"/><use transform="matrix(0.05,0,0,0.05,15.949999999999998,0)" xlink:href="#O"/><use transform="matrix(0.05,0,0,0.05,20.95,0)" xlink:href="#N"/><use transform="matrix(0.05,0,0,0.05,31.899999999999995,0)" xlink:href="#W"/></g><path fill="#fff" d="M128 0H69L1-190h53L99-40l48-150h52" id="X"/><path fill="#fff" d="M133-34C117-15 103 5 69 4 32 3 11-16 11-54c-1-60 55-63 116-61 1-26-3-47-28-47-18 1-26 9-28 27l-52-2c7-38 36-58 82-57s74 22 75 68l1 82c-1 14 12 18 25 15v27c-30 8-71 5-69-32zm-48 3c29 0 43-24 42-57-32 0-66-3-65 30 0 17 8 27 23 27" id="Y"/><path fill="#fff" d="M25 0v-261h50V0H25" id="Z"/><path fill="#fff" d="M85 4C-2 5 27-109 22-190h50c7 57-23 150 33 157 60-5 35-97 40-157h50l1 190h-47c-2-12 1-28-3-38-12 25-28 42-61 42" id="aa"/><path fill="#fff" d="M137-138c1-29-70-34-71-4 15 46 118 7 119 86 1 83-164 76-172 9l43-7c4 19 20 25 44 25 33 8 57-30 24-41C81-84 22-81 20-136c-2-80 154-74 161-7" id="ab"/><path fill="#fff" d="M102-93c0 74-22 123-52 168H0C30 29 54-18 53-93c0-74-22-123-53-168h50c30 45 52 94 52 168" id="ac"/><g id="d"><use transform="matrix(0.05,0,0,0.05,0,0)" xlink:href="#V"/><use transform="matrix(0.05,0,0,0.05,10,0)" xlink:href="#X"/><use transform="matrix(0.05,0,0,0.05,20,0)" xlink:href="#Y"/><use transform="matrix(0.05,0,0,0.05,30,0)" xlink:href="#Z"/><use transform="matrix(0.05,0,0,0.05,35,0)" xlink:href="#aa"/><use transform="matrix(0.05,0,0,0.05,45.95,0)" xlink:href="#M"/><use transform="matrix(0.05,0,0,0.05,55.95,0)" xlink:href="#ab"/><use transform="matrix(0.05,0,0,0.05,65.95,0)" xlink:href="#ac"/></g><filter id="a" filterUnits="objectBoundingBox" x="-.04" y="-.04" width="1.07" height="1.2"><feOffset result="offOut" in="SourceAlpha" dy="6"/><feGaussianBlur result="blurOut" in="offOut" stdDeviation="5"/><feColorMatrix result="colorOut" in="blurOut" values="0 0 0 0 0 0 0 0 0 0 0 0 0 0 0 0 0 0 0.5019607843137255 0"/><feBlend in="SourceGraphic" in2="colorOut"/></filter><path d="M67-93c0 74 22 123 53 168H70C40 30 18-18 18-93s22-123 52-168h50c-32 44-53 94-53 168" id="ad"/><path d="M23 0v-37h61v-169l-59 37v-38l62-41h46v211h57V0H23" id="ae"/><path d="M102-93c0 74-22 123-52 168H0C30 29 54-18 53-93c0-74-22-123-53-168h50c30 45 52 94 52 168" id="af"/><g id="e"><use transform="matrix(0.05,0,0,0.05,0,0)" xlink:href="#ad"/><use transform="matrix(0.05,0,0,0.05,5.95,0)" xlink:href="#ae"/><use transform="matrix(0.05,0,0,0.05,15.949999999999998,0)" xlink:href="#af"/></g><path fill="#fff" d="M121-226c-27-7-43 5-38 36h38v33H83V0H34v-157H6v-33h28c-9-59 32-81 87-68v32" id="ag"/><g id="f"><use transform="matrix(0.05,0,0,0.05,0,0)" xlink:href="#ag"/><use transform="matrix(0.05,0,0,0.05,5.95,0)" xlink:href="#O"/><use transform="matrix(0.05,0,0,0.05,10.95,0)" xlink:href="#T"/><use transform="matrix(0.05,0,0,0.05,21.9,0)" xlink:href="#N"/></g><g id="g"><use transform="matrix(0.05,0,0,0.05,0,0)" xlink:href="#U"/><use transform="matrix(0.05,0,0,0.05,5.95,0)" xlink:href="#V"/><use transform="matrix(0.05,0,0,0.05,15.949999999999998,0)" xlink:href="#O"/><use transform="matrix(0.05,0,0,0.05,20.95,0)" xlink:href="#N"/><use transform="matrix(0.05,0,0,0.05,31.899999999999995,0)" xlink:href="#ac"/></g><path fill="#fff" d="M67-125c0 53 21 87 73 88 37 1 54-22 65-47l45 17C233-25 199 4 140 4 58 4 20-42 15-125 8-235 124-281 211-232c18 10 29 29 36 50l-46 12c-8-25-30-41-62-41-52 0-71 34-72 86" id="ah"/><path fill="#fff" d="M135-150c-39-12-60 13-60 57V0H25l-1-190h47c2 13-1 29 3 40 6-28 27-53 61-41v41" id="ai"/><g id="h"><use transform="matrix(0.074074074074075,0,0,0.074074074074075,0,0)" xlink:href="#ah"/><use transform="matrix(0.074074074074075,0,0,0.074074074074075,19.185185185185425,0)" xlink:href="#S"/><use transform="matrix(0.074074074074075,0,0,0.074074074074075,35.407407407407845,0)" xlink:href="#T"/><use transform="matrix(0.074074074074075,0,0,0.074074074074075,51.62962962963027,0)" xlink:href="#P"/><use transform="matrix(0.074074074074075,0,0,0.074074074074075,60.4444444444452,0)" xlink:href="#ai"/><use transform="matrix(0.074074074074075,0,0,0.074074074074075,70.81481481481569,0)" xlink:href="#S"/><use transform="matrix(0.074074074074075,0,0,0.074074074074075,87.03703703703812,0)" xlink:href="#Z"/><use transform="matrix(0.074074074074075,0,0,0.074074074074075,94.44444444444562,0)" xlink:href="#Z"/><use transform="matrix(0.074074074074075,0,0,0.074074074074075,101.85185185185313,0)" xlink:href="#M"/><use transform="matrix(0.074074074074075,0,0,0.074074074074075,116.66666666666812,0)" xlink:href="#ai"/></g><path fill="#fff" d="M230 0l2-204L168 0h-37L68-204 70 0H24v-248h70l56 185 57-185h69V0h-46" id="aj"/><g id="i"><use transform="matrix(0.074074074074075,0,0,0.074074074074075,0,0)" xlink:href="#aj"/><use transform="matrix(0.074074074074075,0,0,0.074074074074075,22.148148148148426,0)" xlink:href="#S"/><use transform="matrix(0.074074074074075,0,0,0.074074074074075,38.37037037037085,0)" xlink:href="#N"/><use transform="matrix(0.074074074074075,0,0,0.074074074074075,54.59259259259328,0)" xlink:href="#M"/><use transform="matrix(0.074074074074075,0,0,0.074074074074075,69.40740740740827,0)" xlink:href="#Z"/></g><path fill="#fff" d="M24-248c120-7 223 5 221 122C244-46 201 0 124 0H24v-248zM76-40c74 7 117-18 117-86 0-67-45-88-117-82v168" id="ak"/><path fill="#fff" d="M140-251c80 0 125 45 125 126S219 4 139 4C58 4 15-44 15-125s44-126 125-126zm-1 214c52 0 73-35 73-88 0-50-21-86-72-86-52 0-73 35-73 86s22 88 72 88" id="al"/><g id="j"><use transform="matrix(0.074074074074075,0,0,0.074074074074075,0,0)" xlink:href="#ak"/><use transform="matrix(0.074074074074075,0,0,0.074074074074075,19.185185185185425,0)" xlink:href="#Q"/><use transform="matrix(0.074074074074075,0,0,0.074074074074075,38.37037037037085,0)" xlink:href="#al"/></g><path fill="#fff" d="M182-130c37 4 62 22 62 59C244 23 116-4 24 0v-248c84 5 203-23 205 63 0 31-19 50-47 55zM76-148c40-3 101 13 101-30 0-44-60-28-101-31v61zm0 110c48-3 116 14 116-37 0-48-69-32-116-35v72" id="am"/><path fill="#fff" d="M169-182c-1-43-94-46-97-3 18 66 151 10 154 114 3 95-165 93-204 36-6-8-10-19-12-30l50-8c3 46 112 56 116 5-17-69-150-10-154-114-4-87 153-88 188-35 5 8 8 18 10 28" id="an"/><g id="k"><use transform="matrix(0.074074074074075,0,0,0.074074074074075,0,0)" xlink:href="#ak"/><use transform="matrix(0.074074074074075,0,0,0.074074074074075,19.185185185185425,0)" xlink:href="#am"/><use transform="matrix(0.074074074074075,0,0,0.074074074074075,38.37037037037085,0)" xlink:href="#aj"/><use transform="matrix(0.074074074074075,0,0,0.074074074074075,60.51851851851927,0)" xlink:href="#an"/></g><path fill="#fff" d="M24 0v-248h195v40H76v63h132v40H76v65h150V0H24" id="ao"/><path fill="#fff" d="M24 0v-248h52v208h133V0H24" id="ap"/><path fill="#fff" d="M136-208V0H84v-208H4v-40h212v40h-80" id="aq"/><g id="l"><use transform="matrix(0.05,0,0,0.05,0,0)" xlink:href="#an"/><use transform="matrix(0.05,0,0,0.05,12,0)" xlink:href="#ao"/><use transform="matrix(0.05,0,0,0.05,24,0)" xlink:href="#ap"/><use transform="matrix(0.05,0,0,0.05,34.95,0)" xlink:href="#ao"/><use transform="matrix(0.05,0,0,0.05,46.95,0)" xlink:href="#ah"/><use transform="matrix(0.05,0,0,0.05,59.900000000000006,0)" xlink:href="#aq"/></g><path fill="#fff" d="M86-200l42-18 12 35-44 11 32 37-32 21-26-44-26 44-32-21 33-37-44-11 12-35 42 18-3-48h38" id="ar"/><use transform="matrix(0.05,0,0,0.05,0,0)" xlink:href="#ar" id="m"/><path fill="#fff" d="M76-208v77h127v40H76V0H24v-248h183v40H76" id="as"/><path fill="#fff" d="M240-174c0 40-23 61-54 70L253 0h-59l-57-94H76V0H24v-248c93 4 217-23 216 74zM76-134c48-2 112 12 112-38 0-48-66-32-112-35v73" id="at"/><g id="n"><use transform="matrix(0.05,0,0,0.05,0,0)" xlink:href="#as"/><use transform="matrix(0.05,0,0,0.05,10.950000000000001,0)" xlink:href="#at"/><use transform="matrix(0.05,0,0,0.05,23.900000000000002,0)" xlink:href="#al"/><use transform="matrix(0.05,0,0,0.05,37.900000000000006,0)" xlink:href="#aj"/></g><path fill="#fff" d="M135-194c52 0 70 43 70 98 0 56-19 99-73 100-30 1-46-15-58-35L72 0H24l1-261h50v104c11-23 29-37 60-37zM114-30c31 0 40-27 40-66 0-37-7-63-39-63s-41 28-41 65c0 36 8 64 40 64" id="au"/><g id="o"><use transform="matrix(0.05,0,0,0.05,0,0)" xlink:href="#P"/><use transform="matrix(0.05,0,0,0.05,5.95,0)" xlink:href="#Y"/><use transform="matrix(0.05,0,0,0.05,15.949999999999998,0)" xlink:href="#au"/><use transform="matrix(0.05,0,0,0.05,26.899999999999995,0)" xlink:href="#Z"/><use transform="matrix(0.05,0,0,0.05,31.899999999999995,0)" xlink:href="#M"/></g><path fill="#fff" d="M275 0h-61l-44-196L126 0H64L0-248h53L97-49l45-199h58l43 199 44-199h52" id="av"/><path fill="#fff" d="M186 0v-106H76V0H24v-248h52v99h110v-99h50V0h-50" id="aw"/><g id="p"><use transform="matrix(0.05,0,0,0.05,0,0)" xlink:href="#av"/><use transform="matrix(0.05,0,0,0.05,16.95,0)" xlink:href="#aw"/><use transform="matrix(0.05,0,0,0.05,29.899999999999995,0)" xlink:href="#ao"/><use transform="matrix(0.05,0,0,0.05,41.9,0)" xlink:href="#at"/><use transform="matrix(0.05,0,0,0.05,54.85,0)" xlink:href="#ao"/></g><g id="q"><use transform="matrix(0.05,0,0,0.05,0,0)" xlink:href="#O"/><use transform="matrix(0.05,0,0,0.05,5,0)" xlink:href="#N"/></g><path fill="#fff" d="M15-148v-39h180v39H15zm0 97v-39h180v39H15" id="ax"/><use transform="matrix(0.05,0,0,0.05,0,0)" xlink:href="#ax" id="r"/><g id="s"><use transform="matrix(0.05,0,0,0.05,0,0)" xlink:href="#V"/><use transform="matrix(0.05,0,0,0.05,10,0)" xlink:href="#O"/><use transform="matrix(0.05,0,0,0.05,15,0)" xlink:href="#N"/></g><path fill="#fff" d="M135-194c53 0 70 44 70 98 0 56-19 98-73 100-31 1-45-17-59-34 3 33 2 69 2 105H25l-1-265h48c2 10 0 23 3 31 11-24 29-35 60-35zM114-30c33 0 39-31 40-66 0-38-9-64-40-64-56 0-55 130 0 130" id="ay"/><g id="t"><use transform="matrix(0.05,0,0,0.05,0,0)" xlink:href="#aa"/><use transform="matrix(0.05,0,0,0.05,10.950000000000001,0)" xlink:href="#ay"/><use transform="matrix(0.05,0,0,0.05,21.900000000000002,0)" xlink:href="#N"/><use transform="matrix(0.05,0,0,0.05,32.85,0)" xlink:href="#Y"/><use transform="matrix(0.05,0,0,0.05,42.85,0)" xlink:href="#P"/><use transform="matrix(0.05,0,0,0.05,48.800000000000004,0)" xlink:href="#M"/></g><g id="u"><use transform="matrix(0.05,0,0,0.05,0,0)" xlink:href="#U"/><use transform="matrix(0.05,0,0,0.05,5.95,0)" xlink:href="#V"/><use transform="matrix(0.05,0,0,0.05,15.949999999999998,0)" xlink:href="#X"/><use transform="matrix(0.05,0,0,0.05,25.950000000000003,0)" xlink:href="#Y"/><use transform="matrix(0.05,0,0,0.05,35.95,0)" xlink:href="#Z"/><use transform="matrix(0.05,0,0,0.05,40.95,0)" xlink:href="#aa"/><use transform="matrix(0.05,0,0,0.05,51.900000000000006,0)" xlink:href="#M"/><use transform="matrix(0.05,0,0,0.05,61.900000000000006,0)" xlink:href="#ab"/><use transform="matrix(0.05,0,0,0.05,71.9,0)" xlink:href="#ac"/></g><path d="M182-182c0 78-84 86-111 141h115V0H12c-6-101 99-100 120-180 1-22-12-31-33-32-23 0-32 14-35 34l-49-3c5-45 32-70 84-70 51 0 83 22 83 69" id="az"/><g id="v"><use transform="matrix(0.05,0,0,0.05,0,0)" xlink:href="#ad"/><use transform="matrix(0.05,0,0,0.05,5.95,0)" xlink:href="#az"/><use transform="matrix(0.05,0,0,0.05,15.949999999999998,0)" xlink:href="#af"/></g><path fill="#fff" d="M147 0H94L2-248h55l64 206c17-72 42-137 63-206h54" id="aA"/><g id="w"><use transform="matrix(0.05,0,0,0.05,0,0)" xlink:href="#ab"/><use transform="matrix(0.05,0,0,0.05,10,0)" xlink:href="#M"/><use transform="matrix(0.05,0,0,0.05,20,0)" xlink:href="#P"/><use transform="matrix(0.05,0,0,0.05,25.950000000000003,0)" xlink:href="#aA"/><use transform="matrix(0.05,0,0,0.05,36.95,0)" xlink:href="#Y"/><use transform="matrix(0.05,0,0,0.05,46.95,0)" xlink:href="#Z"/><use transform="matrix(0.05,0,0,0.05,51.95,0)" xlink:href="#aa"/><use transform="matrix(0.05,0,0,0.05,62.900000000000006,0)" xlink:href="#M"/><use transform="matrix(0.05,0,0,0.05,72.9,0)" xlink:href="#ab"/></g><g id="x"><use transform="matrix(0.05,0,0,0.05,0,0)" xlink:href="#U"/><use transform="matrix(0.05,0,0,0.05,5.95,0)" xlink:href="#ac"/></g><path fill="#fff" d="M238-95c0 69-44 99-111 99C63 4 22-25 22-93v-155h51v151c-1 38 19 59 55 60 90 1 49-130 58-211h52v153" id="aB"/><path fill="#fff" d="M24-248c93 1 206-16 204 79-1 75-69 88-152 82V0H24v-248zm52 121c47 0 100 7 100-41 0-47-54-39-100-39v80" id="aC"/><g id="y"><use transform="matrix(0.05,0,0,0.05,0,0)" xlink:href="#aB"/><use transform="matrix(0.05,0,0,0.05,12.950000000000001,0)" xlink:href="#aC"/><use transform="matrix(0.05,0,0,0.05,24.950000000000003,0)" xlink:href="#ak"/><use transform="matrix(0.05,0,0,0.05,37.900000000000006,0)" xlink:href="#Q"/><use transform="matrix(0.05,0,0,0.05,49.50000000000001,0)" xlink:href="#aq"/><use transform="matrix(0.05,0,0,0.05,60.45000000000002,0)" xlink:href="#ao"/></g><g id="z"><use transform="matrix(0.05,0,0,0.05,0,0)" xlink:href="#P"/><use transform="matrix(0.05,0,0,0.05,5.95,0)" xlink:href="#Y"/><use transform="matrix(0.05,0,0,0.05,15.949999999999998,0)" xlink:href="#au"/><use transform="matrix(0.05,0,0,0.05,26.899999999999995,0)" xlink:href="#Z"/><use transform="matrix(0.05,0,0,0.05,31.899999999999995,0)" xlink:href="#M"/></g><g id="A"><use transform="matrix(0.05,0,0,0.05,0,0)" xlink:href="#an"/><use transform="matrix(0.05,0,0,0.05,12,0)" xlink:href="#ao"/><use transform="matrix(0.05,0,0,0.05,24,0)" xlink:href="#aq"/></g><path fill="#fff" d="M147 0L96-86 75-71V0H25v-261h50v150l67-79h53l-66 74L201 0h-54" id="aD"/><path fill="#fff" d="M123 10C108 53 80 86 19 72V37c35 8 53-11 59-39L3-190h52l48 148c12-52 28-100 44-148h51" id="aE"/><g id="B"><use transform="matrix(0.05,0,0,0.05,0,0)" xlink:href="#V"/><use transform="matrix(0.05,0,0,0.05,10,0)" xlink:href="#aD"/><use transform="matrix(0.05,0,0,0.05,20,0)" xlink:href="#M"/><use transform="matrix(0.05,0,0,0.05,30,0)" xlink:href="#aE"/></g><use transform="matrix(0.05,0,0,0.05,0,0)" xlink:href="#ax" id="C"/><g id="D"><use transform="matrix(0.05,0,0,0.05,0,0)" xlink:href="#V"/><use transform="matrix(0.05,0,0,0.05,10,0)" xlink:href="#X"/><use transform="matrix(0.05,0,0,0.05,20,0)" xlink:href="#Y"/><use transform="matrix(0.05,0,0,0.05,30,0)" xlink:href="#Z"/><use transform="matrix(0.05,0,0,0.05,35,0)" xlink:href="#aa"/><use transform="matrix(0.05,0,0,0.05,45.95,0)" xlink:href="#M"/></g><g id="F"><use transform="matrix(0.05,0,0,0.05,0,0)" xlink:href="#aA"/><use transform="matrix(0.05,0,0,0.05,11,0)" xlink:href="#Y"/><use transform="matrix(0.05,0,0,0.05,21,0)" xlink:href="#Z"/><use transform="matrix(0.05,0,0,0.05,26,0)" xlink:href="#aa"/><use transform="matrix(0.05,0,0,0.05,36.95,0)" xlink:href="#M"/><use transform="matrix(0.05,0,0,0.05,46.95,0)" xlink:href="#ab"/></g><path fill="#fff" d="M110-251c83-7 118 89 53 130-17 10-36 21-38 46H78c2-56 65-53 71-103 2-21-15-35-38-34-25 1-41 14-44 38l-50-2c6-48 39-70 93-75zM77 0v-47h51V0H77" id="aF"/><g id="G"><use transform="matrix(0.05,0,0,0.05,0,0)" xlink:href="#X"/><use transform="matrix(0.05,0,0,0.05,10,0)" xlink:href="#Y"/><use transform="matrix(0.05,0,0,0.05,20,0)" xlink:href="#Z"/><use transform="matrix(0.05,0,0,0.05,25,0)" xlink:href="#O"/><use transform="matrix(0.05,0,0,0.05,30,0)" xlink:href="#N"/><use transform="matrix(0.05,0,0,0.05,40.95,0)" xlink:href="#aF"/></g><filter id="E" filterUnits="objectBoundingBox" x="-.05" y="-.03" width="1.1" height="1.14"><feOffset result="offOut" in="SourceAlpha" dy="6"/><feGaussianBlur result="blurOut" in="offOut" stdDeviation="5"/><feColorMatrix result="colorOut" in="blurOut" values="0 0 0 0 0 0 0 0 0 0 0 0 0 0 0 0 0 0 0.5019607843137255 0"/><feBlend in="SourceGraphic" in2="colorOut"/></filter><path d="M146-102V0H94v-102L6-248h54l60 105 60-105h54" id="aG"/><path d="M185-48c-13 30-37 53-82 52C43 2 14-33 14-96s30-98 90-98c62 0 83 45 84 108H66c0 31 8 55 39 56 18 0 30-7 34-22zm-45-69c5-46-57-63-70-21-2 6-4 13-4 21h74" id="aH"/><path d="M137-138c1-29-70-34-71-4 15 46 118 7 119 86 1 83-164 76-172 9l43-7c4 19 20 25 44 25 33 8 57-30 24-41C81-84 22-81 20-136c-2-80 154-74 161-7" id="aI"/><g id="H"><use transform="matrix(0.05,0,0,0.05,0,0)" xlink:href="#aG"/><use transform="matrix(0.05,0,0,0.05,11,0)" xlink:href="#aH"/><use transform="matrix(0.05,0,0,0.05,21,0)" xlink:href="#aI"/></g><path fill="#fff" d="M114-157C55-157 80-60 75 0H25v-261h50l-1 109c12-26 28-41 61-42 86-1 58 113 63 194h-50c-7-57 23-157-34-157" id="aJ"/><path fill="#fff" d="M231 0h-52l-39-155L100 0H48L-1-190h46L77-45c9-52 24-97 36-145h53l37 145 32-145h46" id="aK"/><g id="I"><use transform="matrix(0.05,0,0,0.05,0,0)" xlink:href="#an"/><use transform="matrix(0.05,0,0,0.05,12,0)" xlink:href="#aJ"/><use transform="matrix(0.05,0,0,0.05,22.950000000000003,0)" xlink:href="#S"/><use transform="matrix(0.05,0,0,0.05,33.900000000000006,0)" xlink:href="#aK"/></g><g id="J"><use transform="matrix(0.05,0,0,0.05,0,0)" xlink:href="#M"/><use transform="matrix(0.05,0,0,0.05,10,0)" xlink:href="#ai"/><use transform="matrix(0.05,0,0,0.05,17,0)" xlink:href="#ai"/><use transform="matrix(0.05,0,0,0.05,24,0)" xlink:href="#S"/><use transform="matrix(0.05,0,0,0.05,34.95,0)" xlink:href="#ai"/></g><path fill="#fff" d="M220-157c-53 9-28 100-34 157h-49v-107c1-27-5-49-29-50C55-147 81-57 75 0H25l-1-190h47c2 12-1 28 3 38 10-53 101-56 108 0 13-22 24-43 59-42 82 1 51 116 57 194h-49v-107c-1-25-5-48-29-50" id="aL"/><path fill="#fff" d="M195-6C206 82 75 100 31 46c-4-6-6-13-8-21l49-6c3 16 16 24 34 25 40 0 42-37 40-79-11 22-30 35-61 35-53 0-70-43-70-97 0-56 18-96 73-97 30 0 46 14 59 34l2-30h47zm-90-29c32 0 41-27 41-63 0-35-9-62-40-62-32 0-39 29-40 63 0 36 9 62 39 62" id="aM"/><g id="K"><use transform="matrix(0.05,0,0,0.05,0,0)" xlink:href="#aL"/><use transform="matrix(0.05,0,0,0.05,16,0)" xlink:href="#M"/><use transform="matrix(0.05,0,0,0.05,26,0)" xlink:href="#ab"/><use transform="matrix(0.05,0,0,0.05,36,0)" xlink:href="#ab"/><use transform="matrix(0.05,0,0,0.05,46,0)" xlink:href="#Y"/><use transform="matrix(0.05,0,0,0.05,56,0)" xlink:href="#aM"/><use transform="matrix(0.05,0,0,0.05,66.95,0)" xlink:href="#M"/></g><path d="M175 0L67-191c6 58 2 128 3 191H24v-248h59L193-55c-6-58-2-129-3-193h46V0h-61" id="aN"/><path d="M110-194c64 0 96 36 96 99 0 64-35 99-97 99-61 0-95-36-95-99 0-62 34-99 96-99zm-1 164c35 0 45-28 45-65 0-40-10-65-43-65-34 0-45 26-45 65 0 36 10 65 43 65" id="aO"/><g id="L"><use transform="matrix(0.05,0,0,0.05,0,0)" xlink:href="#aN"/><use transform="matrix(0.05,0,0,0.05,12.950000000000001,0)" xlink:href="#aO"/></g></defs></g></svg>